Results
version=1
nRows=9
nColumns=24
inDegrees=yes
endheader
time	pelvis_tilt	pelvis_list	pelvis_rotation	pelvis_tx	pelvis_ty	pelvis_tz	hip_flexion_r	hip_adduction_r	hip_rotation_r	knee_angle_r	ankle_angle_r	subtalar_angle_r	mtp_angle_r	hip_flexion_l	hip_adduction_l	hip_rotation_l	knee_angle_l	ankle_angle_l	subtalar_angle_l	mtp_angle_l	lumbar_extension	lumbar_bending	lumbar_rotation
      1.36300000	      1.83777229	      6.07668010	     -5.71054250	      0.16280475	      1.07040815	      0.34436715	     17.92528032	     -7.11108163	      0.87278315	    -71.40220983	     -8.57513426	    -12.54140941	      5.94229802	      9.27721276	     10.58579894	     -2.79414606	    -11.27493775	     -1.79718668	    -10.99705202	     -1.63238051	      0.73215962	     -3.18047095	      2.48433664
      1.36716667	      1.83390817	      6.09752223	     -5.68593207	      0.16757884	      1.07092259	      0.34433200	     18.57541837	     -7.04315921	      1.10228162	    -71.39655272	     -8.11749886	    -12.76751882	      5.87109160	      8.95898596	     10.65016557	     -2.72623089	    -11.20651959	     -1.60426815	    -10.96032290	     -1.67110428	      0.68392343	     -3.21059158	      2.40899578
      1.37133333	      1.85679464	      6.10217980	     -5.65611553	      0.17231025	      1.07148194	      0.34431392	     19.17477512	     -6.95619396	      1.33233434	    -71.30436454	     -7.86688592	    -12.89189991	      5.84495510	      8.60236655	     10.69871320	     -2.58245699	    -11.12608239	     -1.51037039	    -10.91984639	     -1.68450310	      0.59567394	     -3.17993212	      2.35815913
      1.37550000	      1.85799015	      6.13942532	     -5.63070474	      0.17710676	      1.07198933	      0.34418224	     19.78949031	     -6.91358728	      1.54538990	    -71.17945424	     -7.32617915	    -13.12494376	      5.79935287	      8.26859420	     10.79671241	     -2.49575043	    -11.02290540	     -1.28048589	    -10.92451201	     -1.70949382	      0.52908717	     -3.20552141	      2.28371657
      1.37966667	      1.86534479	      6.10704563	     -5.57471597	      0.18186495	      1.07255180	      0.34428616	     20.34685922	     -6.76854125	      1.74696660	    -70.93842559	     -7.04228458	    -13.22313444	      5.77358642	      7.92288019	     10.79178947	     -2.37806884	    -10.95363317	     -1.16634255	    -10.91422205	     -1.72436725	      0.45825292	     -3.21413472	      2.23329750
      1.38383333	      1.85083473	      6.11598119	     -5.50456591	      0.18669555	      1.07305416	      0.34420796	     20.91521423	     -6.69128215	      1.90852028	    -70.66928413	     -6.44274976	    -13.37323118	      5.70865828	      7.59876638	     10.85292343	     -2.29451376	    -10.85974701	     -0.90202144	    -10.93457491	     -1.76548394	      0.42492881	     -3.25408374	      2.12445213
      1.38800000	      1.86129462	      6.13002157	     -5.46367300	      0.19147135	      1.07356870	      0.34415717	     21.45067473	     -6.61073526	      2.11512676	    -70.32619735	     -6.11950494	    -13.43417753	      5.66684973	      7.23861624	     10.92059908	     -2.13414622	    -10.74127345	     -0.77064823	    -10.90940465	     -1.79269105	      0.36910194	     -3.23150956	      2.04095559
      1.39216667	      1.88171441	      6.11375142	     -5.39359844	      0.19626890	      1.07411955	      0.34415570	     21.93537469	     -6.49804014	      2.28324629	    -69.90930885	     -5.70330141	    -13.49521008	      5.61939041	      6.86098533	     10.95175212	     -1.98206827	    -10.62719714	     -0.58885854	    -10.92759743	     -1.82542446	      0.30072597	     -3.23410383	      1.94689114
      1.39633333	      1.89051794	      6.10225371	     -5.31757093	      0.20107105	      1.07464670	      0.34414802	     22.41184752	     -6.39126352	      2.44512335	    -69.42718858	     -5.34418518	    -13.51877990	      5.57485738	      6.49184774	     10.98789829	     -1.82145417	    -10.50542803	     -0.43962587	    -10.94125310	     -1.85795481	      0.23024298	     -3.23140147	      1.85381747
